<svg width="68" height="76" viewBox="0 0 68 76" fill="none" xmlns="http://www.w3.org/2000/svg">
<g filter="url(#filter0_d)">
<path d="M18.0625 15.9375C16.9614 15.9375 16.0703 16.8285 16.0703 17.9297V25.8984C16.0703 26.9996 16.9614 27.8906 18.0625 27.8906C19.1636 27.8906 20.0547 26.9996 20.0547 25.8984V17.9297C20.0547 16.8285 19.1636 15.9375 18.0625 15.9375Z" fill="#F3F5F9"/>
<path d="M20.0547 25.8984V17.9297C20.0547 16.8285 19.1636 15.9375 18.0625 15.9375V27.8906C19.1636 27.8906 20.0547 26.9996 20.0547 25.8984Z" fill="#D8E0F0"/>
<path d="M28.0234 29.8828H18.0625H8.10156L4.11719 31.875V59.8984L8.10156 61.8906H18.0625H28.0234L32.0078 59.8984V31.875L28.0234 29.8828Z" fill="#F3F5F9"/>
<path d="M32.0078 59.8984V31.875L28.0234 29.8828H18.0625V61.8906H28.0234L32.0078 59.8984Z" fill="#D8E0F0"/>
<path d="M51.9297 27.8906C47.5348 27.8906 43.9609 24.3168 43.9609 19.9219V18.7663L29.6246 15.8986C28.6947 15.7119 28.0234 14.8947 28.0234 13.9453C28.0234 12.996 28.6947 12.1788 29.6246 11.992L43.9609 9.12435V7.96875C43.9609 3.57385 47.5348 0 51.9297 0C56.3246 0 59.8984 3.57385 59.8984 7.96875V8.30915C62.2175 9.13205 63.8828 11.348 63.8828 13.9453C63.8828 16.5426 62.2175 18.7584 59.8984 19.5815V19.9219C59.8984 24.3168 56.3246 27.8906 51.9297 27.8906Z" fill="#D8E0F0"/>
<path d="M22.0469 7.96875H18.0625C14.7669 7.96875 12.0859 10.6497 12.0859 13.9453V17.9297C12.0859 19.0308 12.977 19.9219 14.0781 19.9219H18.0625H22.0469C23.148 19.9219 24.0391 19.0308 24.0391 17.9297V9.96094C24.0391 8.85979 23.148 7.96875 22.0469 7.96875Z" fill="#4D5E80"/>
<path d="M24.0391 17.9297V9.96094C24.0391 8.85979 23.148 7.96875 22.0469 7.96875H18.0625V19.9219H22.0469C23.148 19.9219 24.0391 19.0308 24.0391 17.9297Z" fill="#3D4566"/>
<path d="M22.0469 43.9609H20.0547V41.9688C20.0547 40.8676 19.1636 39.9766 18.0625 39.9766C16.9614 39.9766 16.0703 40.8676 16.0703 41.9688V43.9609H14.0781C12.977 43.9609 12.0859 44.852 12.0859 45.9531C12.0859 47.0543 12.977 47.9453 14.0781 47.9453H16.0703V49.9375C16.0703 51.0386 16.9614 51.9297 18.0625 51.9297C19.1636 51.9297 20.0547 51.0386 20.0547 49.9375V47.9453H22.0469C23.148 47.9453 24.0391 47.0543 24.0391 45.9531C24.0391 44.852 23.148 43.9609 22.0469 43.9609Z" fill="#FF7F40"/>
<path d="M20.0547 49.9375V47.9453H22.0469C23.148 47.9453 24.0391 47.0543 24.0391 45.9531C24.0391 44.852 23.148 43.9609 22.0469 43.9609H20.0547V41.9688C20.0547 40.8676 19.1636 39.9766 18.0625 39.9766V51.9297C19.1636 51.9297 20.0547 51.0386 20.0547 49.9375Z" fill="#F25A3C"/>
<path d="M4.11719 59.8984V66.0078C4.11719 67.109 5.00823 68 6.10938 68H18.0625H30.0156C31.1168 68 32.0078 67.109 32.0078 66.0078V59.8984H18.0625H4.11719Z" fill="#45E6D1"/>
<path d="M26.0312 23.9062H18.0625H10.0938C6.79814 23.9062 4.11719 26.5872 4.11719 29.8828V31.875H18.0625H32.0078V29.8828C32.0078 26.5872 29.3269 23.9062 26.0312 23.9062Z" fill="#45E6D1"/>
<path d="M32.0078 29.8828C32.0078 26.5872 29.3269 23.9062 26.0312 23.9062H18.0625V31.875H32.0078V29.8828Z" fill="#27CCCC"/>
<path d="M32.0078 66.0078V59.8984H18.0625V68H30.0156C31.1168 68 32.0078 67.109 32.0078 66.0078Z" fill="#27CCCC"/>
</g>
<defs>
<filter id="filter0_d" x="-4" y="0" width="76" height="76" filterUnits="userSpaceOnUse" color-interpolation-filters="sRGB">
<feFlood flood-opacity="0" result="BackgroundImageFix"/>
<feColorMatrix in="SourceAlpha" type="matrix" values="0 0 0 0 0 0 0 0 0 0 0 0 0 0 0 0 0 0 127 0"/>
<feOffset dy="4"/>
<feGaussianBlur stdDeviation="2"/>
<feColorMatrix type="matrix" values="0 0 0 0 0 0 0 0 0 0 0 0 0 0 0 0 0 0 0.25 0"/>
<feBlend mode="normal" in2="BackgroundImageFix" result="effect1_dropShadow"/>
<feBlend mode="normal" in="SourceGraphic" in2="effect1_dropShadow" result="shape"/>
</filter>
</defs>
</svg>
